<svg id="visual" viewBox="0 0 960 540" width="960" height="540" xmlns="http://www.w3.org/2000/svg" xmlns:xlink="http://www.w3.org/1999/xlink" version="1.1"><rect x="0" y="0" width="960" height="540" fill="#ffadad"></rect><path d="M0 173L10 200.7C20 228.3 40 283.7 60 280.2C80 276.7 100 214.3 120 196.5C140 178.7 160 205.3 180 233.8C200 262.3 220 292.7 240 284.8C260 277 280 231 300 199.2C320 167.3 340 149.7 360 175.7C380 201.7 400 271.3 420 297.7C440 324 460 307 480 299.3C500 291.7 520 293.3 540 260.2C560 227 580 159 600 160.7C620 162.3 640 233.7 660 239.3C680 245 700 185 720 163.8C740 142.7 760 160.3 780 161.5C800 162.7 820 147.3 840 147.5C860 147.7 880 163.3 900 194.2C920 225 940 271 950 294L960 317L960 0L950 0C940 0 920 0 900 0C880 0 860 0 840 0C820 0 800 0 780 0C760 0 740 0 720 0C700 0 680 0 660 0C640 0 620 0 600 0C580 0 560 0 540 0C520 0 500 0 480 0C460 0 440 0 420 0C400 0 380 0 360 0C340 0 320 0 300 0C280 0 260 0 240 0C220 0 200 0 180 0C160 0 140 0 120 0C100 0 80 0 60 0C40 0 20 0 10 0L0 0Z" fill="#fdffb6" stroke-linecap="round" stroke-linejoin="miter"></path></svg>